<?xml version="1.0" encoding="UTF-8" standalone="no"?>
<svg
   version="1.0"
   width="12822.000000pt"
   height="9899.000000pt"
   viewBox="0 0 12822.000000 9899.000000"
   preserveAspectRatio="xMidYMid meet"
   id="svg1"
   sodipodi:docname="conhexa-logo.svg"
   xml:space="preserve"
   inkscape:version="1.4 (86a8ad7, 2024-10-11)"
   xmlns:inkscape="http://www.inkscape.org/namespaces/inkscape"
   xmlns:sodipodi="http://sodipodi.sourceforge.net/DTD/sodipodi-0.dtd"
   xmlns="http://www.w3.org/2000/svg"
   xmlns:svg="http://www.w3.org/2000/svg"><defs
     id="defs1" /><sodipodi:namedview
     id="namedview1"
     pagecolor="#505050"
     bordercolor="#eeeeee"
     borderopacity="1"
     inkscape:showpageshadow="0"
     inkscape:pageopacity="0"
     inkscape:pagecheckerboard="0"
     inkscape:deskcolor="#505050"
     inkscape:document-units="pt"
     inkscape:zoom="0.02"
     inkscape:cx="1225"
     inkscape:cy="9175"
     inkscape:window-width="1366"
     inkscape:window-height="705"
     inkscape:window-x="-8"
     inkscape:window-y="-8"
     inkscape:window-maximized="1"
     inkscape:current-layer="g31" /><g
     transform="translate(0.000000,9899.000000) scale(0.100000,-0.100000)"
     fill="#000000"
     stroke="none"
     id="g1" /><g
     transform="matrix(0.1,0,0,-0.1,-55,216.75962)"
     fill="#000000"
     stroke="none"
     id="g33"><g
       transform="matrix(57.9299,0,0,45.682522,-974.5767,-92141.958)"
       fill="#000000"
       stroke="none"
       id="g34"><g
         transform="matrix(1.1366877,0,0,1.4414312,-1355.8135,-1827.4083)"
         fill="#000000"
         stroke="none"
         id="g31"><g
           id="g2"
           transform="matrix(1.2527548,0,0,1.2527548,-489.15267,-682.43796)"
           style="fill:#ffffff;fill-opacity:1"><path
             d="m 1580,2648 v -53 h 50 50 v 53 52 h -50 -50 z"
             id="path1-4"
             style="fill:#ffffff;fill-opacity:1" /><path
             d="m 1830,2640 c 0,-27 3,-30 30,-30 27,0 30,3 30,30 0,27 -3,30 -30,30 -27,0 -30,-3 -30,-30 z"
             id="path2-5"
             style="fill:#ffffff;fill-opacity:1" /><path
             d="m 2099,2581 c -104,-33 -146,-59 -146,-87 0,-15 -6,-29 -12,-33 -8,-5 -5,-24 9,-66 27,-78 48,-111 63,-96 6,6 21,11 34,11 16,0 23,6 23,19 0,37 40,147 75,205 19,32 35,60 35,62 0,8 -26,3 -81,-15 z"
             id="path3-5"
             style="fill:#ffffff;fill-opacity:1" /><path
             d="m 2208,2583 c -41,-21 -99,-129 -122,-226 -6,-27 -5,-27 49,18 66,54 154,100 221,116 27,6 53,15 57,19 5,4 41,5 80,3 l 72,-4 -56,30 c -106,56 -241,76 -301,44 z m 210,-48 c -3,-3 -9,2 -12,12 -6,14 -5,15 5,6 7,-7 10,-15 7,-18 z"
             id="path4-1"
             style="fill:#ffffff;fill-opacity:1" /><path
             d="m 1680,2405 v -85 h 85 86 l -3,83 -3,82 -82,3 -83,3 z"
             id="path5"
             style="fill:#ffffff;fill-opacity:1" /><path
             d="m 2357,2474 c -75,-19 -156,-64 -215,-119 l -54,-50 18,-32 c 18,-31 18,-32 -3,-62 l -23,-30 38,-29 c 93,-73 227,-126 262,-104 28,17 57,15 64,-4 5,-14 17,-16 74,-11 127,11 255,71 267,125 13,60 -71,220 -153,295 -39,34 -46,37 -105,37 -36,0 -68,-5 -75,-12 -9,-9 -17,-10 -30,-2 -12,8 -31,7 -65,-2 z"
             id="path6"
             style="fill:#ffffff;fill-opacity:1" /><path
             d="m 1890,2360 v -90 h -73 -74 l -19,-62 c -14,-46 -19,-92 -18,-168 0,-96 3,-112 35,-190 19,-47 39,-85 44,-85 21,0 36,-17 30,-34 -14,-44 190,-190 300,-216 28,-6 28,-5 -21,47 -27,29 -60,69 -72,89 -12,20 -31,39 -42,42 -25,6 -36,35 -23,56 7,11 5,33 -5,71 -21,82 -12,236 20,322 17,46 22,71 16,83 -6,9 -7,23 -4,31 3,7 -10,46 -29,86 -19,40 -35,80 -35,90 0,10 -7,18 -15,18 -12,0 -15,-17 -15,-90 z m -40,-256 v -44 h -45 -45 v 43 c 0,24 2,46 4,48 3,3 23,3 45,1 l 41,-4 z"
             id="path7"
             style="fill:#ffffff;fill-opacity:1" /><path
             d="m 1543,2203 -63,-4 v -64 -65 h 65 65 v 70 c 0,39 -1,69 -2,68 -2,-1 -31,-3 -65,-5 z"
             id="path8"
             style="fill:#ffffff;fill-opacity:1" /><path
             d="m 1994,2151 c -25,-60 -36,-122 -36,-206 0,-98 16,-163 47,-187 19,-15 22,-24 16,-41 -7,-18 -2,-33 21,-67 49,-73 110,-131 130,-124 11,3 20,-1 24,-10 5,-12 20,-16 61,-16 45,0 58,4 74,23 10,12 18,28 19,35 0,7 9,38 20,68 27,79 19,105 -44,144 -45,29 -63,37 -88,39 -5,1 -8,8 -8,17 0,8 -18,36 -39,62 -60,73 -121,207 -121,268 0,17 -7,23 -31,26 -27,4 -32,1 -45,-31 z"
             id="path9"
             style="fill:#ffffff;fill-opacity:1" /><path
             d="m 2080,2153 c 0,-22 34,-122 58,-168 34,-68 90,-135 113,-135 11,0 23,-10 29,-24 5,-14 29,-36 53,-50 39,-23 47,-24 77,-13 18,6 56,36 84,66 64,68 152,126 225,148 75,23 94,45 85,98 -3,22 -8,41 -9,43 -2,2 -21,-8 -42,-22 -54,-36 -139,-64 -231,-77 -42,-6 -81,-15 -87,-20 -14,-13 -43,-11 -52,5 -4,7 -35,21 -68,31 -72,21 -125,46 -187,92 -27,19 -48,31 -48,26 z"
             id="path10"
             style="fill:#ffffff;fill-opacity:1" /><path
             d="m 2708,1956 c -86,-35 -138,-69 -196,-129 -46,-47 -52,-57 -46,-81 3,-15 13,-30 20,-33 16,-6 -45,-43 -70,-43 -7,0 -18,-12 -24,-27 -44,-113 -32,-137 56,-107 56,19 192,108 199,131 3,7 -10,13 -34,16 l -38,4 38,1 c 20,1 37,7 37,12 0,6 9,10 19,10 33,0 90,97 116,197 12,45 12,59 2,65 -16,10 -14,11 -79,-16 z m -165,-263 c -7,-2 -19,-2 -25,0 -7,3 -2,5 12,5 14,0 19,-2 13,-5 z"
             id="path11"
             style="fill:#ffffff;fill-opacity:1" /></g></g></g></g></svg>
