<?xml version="1.0" encoding="UTF-8" standalone="no"?>
<!-- Generator: Adobe Illustrator 25.4.1, SVG Export Plug-In . SVG Version: 6.00 Build 0)  -->

<svg
   version="1.1"
   id="class-icons"
   x="0px"
   y="0px"
   viewBox="0 0 4103.0869 3167.5217"
   xml:space="preserve"
   width="4103.0869"
   height="3167.5217"
   sodipodi:docname="conhexa-logo.svg"
   inkscape:export-filename="logo-white.svg"
   inkscape:export-xdpi="96"
   inkscape:export-ydpi="96"
   inkscape:version="1.4 (86a8ad7, 2024-10-11)"
   xmlns:inkscape="http://www.inkscape.org/namespaces/inkscape"
   xmlns:sodipodi="http://sodipodi.sourceforge.net/DTD/sodipodi-0.dtd"
   xmlns:xlink="http://www.w3.org/1999/xlink"
   xmlns="http://www.w3.org/2000/svg"
   xmlns:svg="http://www.w3.org/2000/svg"><sodipodi:namedview
   id="namedview1"
   pagecolor="#505050"
   bordercolor="#eeeeee"
   borderopacity="1"
   inkscape:showpageshadow="0"
   inkscape:pageopacity="0"
   inkscape:pagecheckerboard="0"
   inkscape:deskcolor="#505050"
   inkscape:zoom="0.04364611"
   inkscape:cx="1523.618"
   inkscape:cy="-194.74817"
   inkscape:window-width="1366"
   inkscape:window-height="705"
   inkscape:window-x="-8"
   inkscape:window-y="-8"
   inkscape:window-maximized="1"
   inkscape:current-layer="g1" /><defs
   id="defs2"><linearGradient
     id="swatch1"><stop
       style="stop-color:#000000;stop-opacity:1;"
       offset="0"
       id="stop3" /></linearGradient><linearGradient
     id="linearGradient11"
     inkscape:collect="always"><stop
       style="stop-color:#000000;stop-opacity:1;"
       offset="0"
       id="stop11" /><stop
       style="stop-color:#000000;stop-opacity:0;"
       offset="1"
       id="stop12" /></linearGradient><linearGradient
     id="SVGID_1_"
     gradientUnits="userSpaceOnUse"
     x1="6.8210993"
     y1="32"
     x2="57.178902"
     y2="32"
     gradientTransform="matrix(0,1,1,0,23.877306,-24.045475)">
			<stop
   offset="0"
   style="stop-color:#9B7644"
   id="stop1" />
			<stop
   offset="1"
   style="stop-color:#D7AB6D"
   id="stop2" />
		</linearGradient><linearGradient
     id="SVGID_1_-0"
     gradientUnits="userSpaceOnUse"
     x1="6.8210993"
     y1="32"
     x2="57.178902"
     y2="32"
     gradientTransform="rotate(180,37.671338,30.401176)">
			<stop
   offset="0"
   style="stop-color:#9B7644"
   id="stop1-9" />
			<stop
   offset="1"
   style="stop-color:#D7AB6D"
   id="stop2-4" />
		</linearGradient><linearGradient
     id="SVGID_1_-9"
     gradientUnits="userSpaceOnUse"
     x1="30.603615"
     y1="13.186946"
     x2="32"
     y2="60.596298"
     gradientTransform="matrix(1,0,0,-1,-1.1,69.5)">
			<stop
   offset="0"
   style="stop-color:#9B7644"
   id="stop1-5" />
			<stop
   offset="1"
   style="stop-color:#D7AB6D"
   id="stop2-43" />
		</linearGradient><radialGradient
     inkscape:collect="always"
     xlink:href="#linearGradient11"
     id="radialGradient12"
     cx="30.98365"
     cy="31.707844"
     fx="30.98365"
     fy="31.707844"
     r="32.05537"
     gradientTransform="matrix(1,0,0,0.58336559,0,13.210579)"
     gradientUnits="userSpaceOnUse" /></defs>
<style
   type="text/css"
   id="style1">
	.st0{fill:url(#SVGID_1_);}
</style>

<style
   type="text/css"
   id="style1-7">
	.st0{fill:url(#SVGID_1_);}
</style><style
   type="text/css"
   id="style1-4">
	.st0{fill:url(#SVGID_1_);}
</style><style
   type="text/css"
   id="style1-7-8">
	.st0{fill:url(#SVGID_1_);}
</style><g
   id="g4"
   transform="matrix(1.2788951,0,0,1.1942035,2142.39,1679.542)"><g
     transform="matrix(0.41702664,0,0,-0.33495129,-2300.1578,1608.7049)"
     fill="#000000"
     stroke="none"
     id="g32"><g
       id="g1"
       style="fill:#ffffff;fill-opacity:1"
       transform="matrix(2.011762,0,0,1.9096336,-5361.1657,-7319.5344)"><path
         d="m 5250,8541 c -27,-9 -94,-46 -395,-216 -104,-59 -234,-132 -289,-162 -126,-69 -321,-181 -606,-348 -124,-72 -270,-157 -325,-188 -55,-31 -114,-69 -132,-85 -32,-30 -68,-92 -85,-147 -5,-18 -9,-398 -8,-930 l 1,-899 26,-48 c 35,-65 116,-139 194,-178 72,-37 287,-160 399,-230 41,-25 122,-72 180,-104 58,-33 164,-94 235,-136 72,-42 218,-128 325,-190 107,-62 248,-144 312,-182 144,-85 176,-98 231,-98 53,0 96,17 186,72 79,49 228,136 486,283 105,59 242,138 305,175 63,37 131,76 150,85 50,25 273,151 355,200 39,23 116,66 173,95 119,61 196,126 237,202 l 29,53 v 915 915 l -22,46 c -31,62 -73,103 -151,146 -76,42 -258,147 -416,241 -60,36 -173,101 -250,145 -189,108 -336,194 -610,355 -345,204 -366,214 -444,218 -36,2 -77,0 -91,-5 z m 123,-674 c 40,-17 320,-181 627,-368 129,-78 291,-175 360,-215 168,-97 201,-122 230,-174 l 25,-45 3,-560 c 2,-308 0,-587 -3,-620 l -6,-60 -77,-53 c -85,-58 -197,-125 -402,-239 -74,-42 -196,-113 -270,-158 -74,-45 -154,-92 -177,-104 -24,-12 -111,-62 -195,-111 -84,-50 -158,-90 -166,-90 -8,0 -60,25 -116,57 -55,31 -155,86 -221,123 -66,36 -158,90 -205,120 -96,60 -295,175 -415,240 -212,114 -296,168 -321,205 -14,21 -16,96 -17,637 l -2,613 23,47 c 29,59 62,85 232,183 74,43 189,109 255,148 484,282 767,437 797,437 5,0 23,-6 41,-13 z"
         id="path1"
         style="fill:#ffffff;fill-opacity:1" /><path
         d="m 5240,7472 c -48,-26 -91,-90 -97,-143 -5,-42 -9,-46 -67,-80 -33,-21 -96,-62 -140,-93 l -79,-57 -26,24 c -82,77 -196,72 -284,-11 -74,-70 -89,-184 -34,-270 l 27,-42 c -207.0599,-325.2048 -72.2971,-1210.0193 292,-1008 21,12 38,25 38,30 0,16 21,7 78,-34 31,-24 89,-62 129,-86 l 71,-43 4,-62 c 6,-96 58,-153 159,-172 110,-20 218,75 219,193 0,24 5,42 11,42 18,0 182,107 217,141 20,20 33,26 37,18 13,-21 110,-59 150,-59 78,0 179,66 205,135 24,64 7,169 -35,216 -13,14 -13,18 4,33 251.3046,195.318 125.6765,1036 -178,1036 -43,0 -109,-29 -135,-59 -16,-18 -22,-19 -35,-8 -9,8 -56,38 -106,67 -144,85 -155,95 -155,144 0,49 -25,94 -75,132 -49,37 -142,45 -195,16 z m 35,-358 c 66,-12 124,1 160,36 40,38 39,39 150,-35 46,-30 99,-62 119,-72 35,-16 36,-18 36,-73 0,-31 6,-62 13,-69 10,-10 3,-20 -33,-52 -25,-22 -67,-55 -95,-73 -27,-19 -78,-60 -113,-91 l -63,-57 -51,22 c -59,25 -119,23 -169,-7 -19,-11 -32,-14 -37,-8 -9,13 -272,190 -294,198 -15,5 -15,10 -2,54 10,31 13,67 10,100 l -6,53 40,20 c 22,11 81,47 131,80 l 90,59 39,-39 c 24,-24 52,-41 75,-46 z m -289,-439 c 69,-49 132,-94 140,-100 12,-9 11,-17 -2,-55 -11,-32 -14,-60 -9,-95 14,-101 18,-94 -74,-150 -46,-29 -107,-72 -135,-97 l -51,-45 -34,26 c -26,20 -45,25 -86,25 -269.0722,0 -117.8654,537.6473 -110,556 h 60 c 47,0 72,6 115,29 48,26 55,27 58,13 2,-9 59,-57 128,-107 z m 884,84 c 14,-6 53,-12 88,-13 l 62,-1 c 86.6304,-162.2113 127.3146,-370.1473 30,-544 -17,-25 -22,-27 -82,-23 -62,4 -106,-8 -149,-39 -13,-10 -37,0 -135,59 -66,40 -132,82 -148,95 -28,23 -29,25 -18,70 17,66 14,136 -7,183 l -19,42 27,12 c 36,16 164,104 230,157 50,41 55,43 75,28 11,-8 32,-20 46,-26 z m -635,-515 c 47,-19 145,-20 181,-1 28,14 30,14 74,-23 25,-21 74,-55 110,-76 36,-20 84,-51 107,-68 l 43,-31 -3,-74 -2,-74 -88,-51 c -49,-28 -106,-66 -127,-83 l -38,-32 -37,29 c -73,58 -161,60 -217,6 l -33,-32 -136,85 -155.8182,90.3024 6.4935,66.3023 c -1,33 -10.5497,64.3953 -11.5497,83.3953 -2,30 21.8744,37 58.8744,60 22,14 79,52 125,83 45,31 88,57 94,57 6,1 28,-6 49,-15 z"
         id="path2"
         style="fill:#ffffff;fill-opacity:1"
         sodipodi:nodetypes="ccccccccccsccccccsccscccscccsccccccsscccccccccccsccsccsccccccscscccsccccccccccsccscccccccccccccccccccccc" /></g></g></g><style
   type="text/css"
   id="style1-48">
	.st0{fill:url(#SVGID_1_);}
</style></svg>
