<?xml version="1.0" encoding="UTF-8" standalone="no"?>
<svg
   version="1.0"
   width="12822.000000pt"
   height="9899.000000pt"
   viewBox="0 0 12822.000000 9899.000000"
   preserveAspectRatio="xMidYMid meet"
   id="svg1"
   sodipodi:docname="conhexa-logo.svg"
   xml:space="preserve"
   inkscape:version="1.4 (86a8ad7, 2024-10-11)"
   xmlns:inkscape="http://www.inkscape.org/namespaces/inkscape"
   xmlns:sodipodi="http://sodipodi.sourceforge.net/DTD/sodipodi-0.dtd"
   xmlns="http://www.w3.org/2000/svg"
   xmlns:svg="http://www.w3.org/2000/svg"><defs
     id="defs1" /><sodipodi:namedview
     id="namedview1"
     pagecolor="#505050"
     bordercolor="#eeeeee"
     borderopacity="1"
     inkscape:showpageshadow="0"
     inkscape:pageopacity="0"
     inkscape:pagecheckerboard="0"
     inkscape:deskcolor="#505050"
     inkscape:document-units="pt"
     inkscape:zoom="0.02"
     inkscape:cx="7475"
     inkscape:cy="7425"
     inkscape:window-width="1366"
     inkscape:window-height="705"
     inkscape:window-x="-8"
     inkscape:window-y="-8"
     inkscape:window-maximized="1"
     inkscape:current-layer="g61"
     showguides="true" /><g
     transform="translate(0.000000,9899.000000) scale(0.100000,-0.100000)"
     fill="#000000"
     stroke="none"
     id="g1" /><g
     transform="matrix(0.1,0,0,-0.1,-55,216.75962)"
     fill="#000000"
     stroke="none"
     id="g33"><g
       transform="matrix(57.9299,0,0,45.682522,-974.5767,-92141.958)"
       fill="#000000"
       stroke="none"
       id="g34"><g
         transform="matrix(1.1366877,0,0,1.4414312,-1355.8135,-1827.4083)"
         fill="#000000"
         stroke="none"
         id="g31"><g
           transform="matrix(0.57243562,0,0,0.57243562,406.96696,809.77265)"
           fill="#000000"
           stroke="none"
           id="g61"><g
             id="g5"
             transform="matrix(1.310071,0,0,1.0689867,-1038.3023,65.29817)"><path
               d="M 2761.857,1125.6692 C 2488.2297,1429.6489 704.94424,3912.1372 3119.1153,2693.695 2880.4737,2792.6596 1578.8519,2832.4451 2761.857,1125.6692 Z"
               style="fill:#ffffff;fill-opacity:1;stroke-width:2.03634"
               id="path1"
               sodipodi:nodetypes="ccc" /><path
               d="m 2565.5537,2137.3075 c 303.9797,273.6273 2786.4683,2056.9126 1568.026,-357.2583 98.9646,238.6416 138.7501,1540.2633 -1568.026,357.2583 z"
               style="fill:#ffffff;fill-opacity:1;stroke-width:2.03634"
               id="path1-6"
               sodipodi:nodetypes="ccc" /><path
               d="M 3476.3737,2473.4437 C 3750.001,2169.464 5533.2865,-313.0243 3119.1153,905.41785 3357.757,806.45326 4659.3788,766.66777 3476.3737,2473.4437 Z"
               style="fill:#ffffff;fill-opacity:1;stroke-width:2.03634"
               id="path1-6-9"
               sodipodi:nodetypes="ccc" /><path
               d="M 3791.1459,1461.8053 C 3487.1662,1188.178 1004.6776,-595.10722 2223.1198,1819.0637 2124.1552,1580.422 2084.3697,278.80034 3791.1459,1461.8053 Z"
               style="fill:#ffffff;fill-opacity:1;stroke-width:2.03634"
               id="path1-6-9-8"
               sodipodi:nodetypes="ccc" /></g></g></g></g></g></svg>
