<?xml version="1.0" encoding="UTF-8" standalone="no"?>
<svg
   version="1.0"
   width="12822.000000pt"
   height="9899.000000pt"
   viewBox="0 0 12822.000000 9899.000000"
   preserveAspectRatio="xMidYMid meet"
   id="svg1"
   sodipodi:docname="nhexa-logo.svg"
   xml:space="preserve"
   inkscape:version="1.4 (86a8ad7, 2024-10-11)"
   xmlns:inkscape="http://www.inkscape.org/namespaces/inkscape"
   xmlns:sodipodi="http://sodipodi.sourceforge.net/DTD/sodipodi-0.dtd"
   xmlns="http://www.w3.org/2000/svg"
   xmlns:svg="http://www.w3.org/2000/svg"><defs
     id="defs1" /><sodipodi:namedview
     id="namedview1"
     pagecolor="#505050"
     bordercolor="#eeeeee"
     borderopacity="1"
     inkscape:showpageshadow="0"
     inkscape:pageopacity="0"
     inkscape:pagecheckerboard="0"
     inkscape:deskcolor="#505050"
     inkscape:document-units="pt"
     inkscape:zoom="0.028284271"
     inkscape:cx="4154.2523"
     inkscape:cy="5992.73"
     inkscape:window-width="1366"
     inkscape:window-height="705"
     inkscape:window-x="-8"
     inkscape:window-y="-8"
     inkscape:window-maximized="1"
     inkscape:current-layer="g6"
     showguides="true" /><g
     transform="translate(0.000000,9899.000000) scale(0.100000,-0.100000)"
     fill="#000000"
     stroke="none"
     id="g1" /><g
     transform="matrix(0.1,0,0,-0.1,-55,216.75962)"
     fill="#000000"
     stroke="none"
     id="g33"><g
       transform="matrix(57.9299,0,0,45.682522,-974.5767,-92141.958)"
       fill="#000000"
       stroke="none"
       id="g34"><g
         transform="matrix(1.1366877,0,0,1.4414312,-1355.8135,-1827.4083)"
         fill="#000000"
         stroke="none"
         id="g31"><g
           transform="matrix(0.57243562,0,0,0.57243562,406.96696,809.77265)"
           fill="#000000"
           stroke="none"
           id="g61"><g
             id="g5"
             transform="matrix(1.310071,0,0,1.0689867,-1038.3023,65.29817)"><g
               id="g6"
               transform="matrix(0.82875176,0,0,0.82875176,658.5355,518.5218)"><path
                 d="m 2135.7033,1085.6805 c 139.292,446.2854 1321.6527,3620.8982 894.1414,460.0593 -20.0463,115.0003 -176.1441,1312.6507 -894.1414,-460.0593 z"
                 style="fill:#ffffff;fill-opacity:1;stroke-width:1.6073"
                 id="path1"
                 sodipodi:nodetypes="ccc" /><path
                 d="m 3923.9862,2005.7991 c -139.2921,-446.2854 -1321.6528,-3620.8982 -894.1415,-460.0593 20.0463,-115.0003 176.1441,-1312.65069 894.1415,460.0593 z"
                 style="fill:#ffffff;fill-opacity:1;stroke-width:1.6073"
                 id="path1-2"
                 sodipodi:nodetypes="ccc" /></g></g></g></g></g></g></svg>
